<?xml version="1.0" encoding="utf-8"?>
<!-- Generator: Adobe Illustrator 26.0.2, SVG Export Plug-In . SVG Version: 6.00 Build 0)  -->
<svg version="1.2" baseProfile="tiny" id="Livello_1"
	 xmlns="http://www.w3.org/2000/svg" xmlns:xlink="http://www.w3.org/1999/xlink" x="0px" y="0px" viewBox="0 0 1490.75 1143.96"
	 overflow="visible" xml:space="preserve">
<g>
	<path fill="#E30613" d="M1110.3,732.87V96.65c0-15.06-12.17-27.23-27.21-27.23H929.76h-2.46c-15.04,0-27.24,12.17-27.24,27.23
		v125.78h-53.45V96.65c0-15.06-12.21-27.23-27.27-27.23h-2.26H659.54h-2.26c-15.06,0-27.29,12.17-27.29,27.23v125.78h-53.42V96.65
		c0-15.06-12.2-27.23-27.27-27.23h-2.52H393.52c-15.06,0-27.27,12.17-27.27,27.23v636.22c0,0.1,0.02,0.19,0.02,0.29v2.22
		c-0.51,11.14,2.85,14.09,7.93,19.21l166.09,162.06c3.08,2.99,6.53,2.25,9.43,2.54l376.46,0.16c2.9-0.29,7.07,0.29,10.13-2.7
		l166.11-162.06c5.03-5.12,8.39-8.07,7.85-19.21v-2.22C1110.28,733.05,1110.3,732.97,1110.3,732.87z M568.29,866.48L420.75,721.47
		V123.9h101.06v125.76c0,15.06,12.22,27.25,27.21,27.25h2.52h103.47h2.27c15.06,0,27.19-12.19,27.19-27.25V123.9h107.58v125.76
		c0,15.06,12.21,27.25,27.26,27.25h2.27h103.45h2.45c15.07,0,27.29-12.19,27.29-27.25V123.9h101.01v597.57L908.25,866.48H568.29z"/>
	<polygon fill-rule="evenodd" fill="#E30613" points="395.62,96.56 395.62,731.64 545.22,881.3 929.08,881.3 1081.25,729.13 
		1081.25,96.56 924.09,96.56 924.09,248.72 821.26,248.72 821.26,96.56 657.88,96.56 657.88,248.72 550.26,248.72 550.26,96.56 	"/>
	<path fill="#E30613" d="M1443.63,350.68c-3.58-7.54-10.81-12.71-19.09-13.71c-2.91-0.31-6.62-0.5-11.61-0.5
		c-19.55,0-55.26,2.5-65.73,4.02c-25.3,3.61-52.69,14.38-78.74,29.74c26.24-29.96,48.24-52.49,48.68-52.94
		c7.26-7.42,9.02-18.67,4.29-27.94c-4.72-9.28-14.79-14.52-25.07-13.04l-77.12,10.97c-3.54,0.51-6.95,1.85-9.92,3.78
		c-3.83-1.48-8.01-2.07-12.3-1.43l-77.12,10.98c-5.38,0.79-10.44,3.38-14.18,7.34c-2.33,2.47-50.78,53.7-86.57,99.7
		c-7.69-6.83-20.03-12.58-40.04-12.58c-6.1,0-12.84,0.52-20.02,1.53c-26.38,3.78-57.59,16.21-87.01,34.48
		c-0.54-1.24-1.24-2.45-1.99-3.65c-3.83-5.51-9.67-9.08-16.05-10.11l7.73-10.64c6.07-8.35,6.24-19.64,0.3-28.13
		c-5.91-8.48-16.56-12.34-26.47-9.54l-71.93,20.2c-5.44,1.51-10.11,4.85-13.3,9.45l-42.22,60.24c-0.58-0.72-1.26-1.42-1.98-2.07
		c-10.98-9.99-27-14.84-49.17-14.84c-5.07,0-10.56,0.26-16.18,0.76c-41.23,3.92-68.19,9.67-87.13,18.42
		c-3.45-1.1-7.15-1.51-10.95-0.97l-64.85,9.29c-3.24,0.48-6.42,1.61-9.14,3.28c-4.81-1.52-10.44-2.43-17.04-2.43
		c-5.07,0-10.79,0.5-17.95,1.53c-2.15,0.3-4.36,0.69-6.62,1.14c21.89-16,39.58-30.1,52.76-42c24.84-22.47,34.69-37.94,33.9-53.38
		c-0.68-14.63-9.27-26.77-23.6-33.33c-8.79-4.03-19.82-6-33.54-6c-27.41,0-65.95,8.23-103.04,22.01
		c-60.94,22.67-116.57,54.52-165.33,94.64c-49.05,40.37-88.78,87.18-118.19,139.13c-23.85,42.07-28.13,82.21-11.9,110.12
		c7.11,12.14,24.82,32.5,63.83,32.5c7.87,0,16.32-0.82,25.21-2.48c31.76-5.87,62.71-25.85,88.38-49c0.85,2.28,1.88,4.55,3.14,6.73
		c5.47,9.47,16.98,21.02,40.79,22.1c1.24,0.06,2.43,0.08,3.69,0.08c18.37,0,41.94-6,61.34-12.77c3.18,1.16,6.62,1.68,10.1,1.43
		l63.8-4.43c9.23-0.64,17.26-6.46,20.79-14.99c0.05-0.14,1.15-2.7,2.98-7.01c12.26,7.21,30.92,10.77,56.76,10.77
		c4.5,0,9.09-0.12,13.8-0.36c57.88-2.63,89.83-14.16,110.31-32.59c6.38,4.22,15.45,7.29,28.21,7.31c4.95,0,10.27-0.44,16.28-1.28
		c11.3-1.64,19.46-2.34,23.86-2.62c0.57,0.02,1.16,0.06,1.68,0.06l0,0c3.84,0,7.63-0.85,11.13-2.49
		c10.53-4.84,16.08-16.39,13.45-27.59c-0.2-0.93-0.49-1.82-0.84-2.72c3.02-10.5,11.78-31.98,26.22-51.84
		c0.07-0.1,0.14-0.18,0.15-0.27l30.01-42.49c-2.21,3.66-4.46,7.4-6.48,11.17c-12,21.82-20.13,53.17-6.76,75.71
		c4.92,8.47,17.4,22.64,44.12,22.64h0.03c4.04,0,8.32-0.32,12.79-0.96c27.64-3.97,60.69-15.54,98.37-34.44
		c0.57,1.21,1.31,2.43,2.1,3.54c4.63,6.37,11.93,10.04,19.64,10.04c1.15,0,2.31-0.09,3.41-0.24l81.34-11.51
		c2.76-0.42,5.43-1.29,7.84-2.57c2.21,0.64,4.43,0.96,6.74,0.96c1.16,0,2.32-0.07,3.43-0.23l81.34-11.53
		c8.36-1.16,15.56-6.7,18.92-14.51c0.1-0.32,6.41-15.04,15.71-35.05c1.26,3.72,2.9,7.31,4.95,10.63
		c5.93,9.86,20.81,26.44,53.13,26.44c5.08,0,10.53-0.45,16.12-1.26c80.62-11.54,152.91-75.11,182.6-131.97
		c5.56-10.54,13.33-28.52,14.43-47.5c6.52-2.71,13.71-7.5,17.99-16.43C1448.26,376.47,1450.6,365.38,1443.63,350.68z"/>
	<g>
		<g>
			<path fill-rule="evenodd" fill="#FFFFFF" d="M489.62,378.85c-1.36-26.71-70.13-17.11-127.51,4.23
				C244.78,426.71,147.38,506.83,91.27,606.03c-33.69,59.5-23.53,118.26,51.55,104.33c55.83-10.36,113.55-76.36,130.64-109.52
				l-34.39-3.06c-20.97,25.94-48.42,41.4-64.4,27.92c-43.78-36.91,136.4-181.85,175.31-175.27c20.9,3.53-40.11,64.77-30.61,66.68
				C319.36,517.09,491.08,408.58,489.62,378.85z"/>
		</g>
		<g>
			<path fill-rule="evenodd" fill="#FFFFFF" d="M354.94,639.7c23-6.36,46.7-42.63,74.76-86.56c9.78-15.32,0.9-18.74-6.24-17.84
				c-17.28,2.13-86.21,46.31-99.17,80.12C316.99,634.56,334.41,645.4,354.94,639.7z M353.04,678.58l10.11-11.4
				c-15.8,8.87-58.49,23.7-82.44,22.6c-25.93-1.17-32.17-20.45-10.21-62.51c32.07-61.29,115.04-123.99,166.69-131.39
				c21.42-3.03,31.2-0.98,34.51,11.7l9.63-14.06l64.83-9.28c0,0-55.88,54.56-82.7,96.11c-22.2,34.3-46.62,93.8-46.62,93.8
				L353.04,678.58z"/>
		</g>
		<g>
			<path fill-rule="evenodd" fill="#FFFFFF" d="M689.78,474.76c-9.34-8.53-28.76-9.51-46.68-7.83
				c-85.91,8.15-98.03,23.69-111.65,49.73c-8.21,15.66,3.6,39.12,13.61,53.35c7.96,11.47,21.92,25.55,15.8,37.33
				c-8.57,16.38-30.71,16.47-34.29,16.97c-12.14,1.77-32.13-4.15-38.42-8.54l-34.38,39.21c11.33,7.28,35.98,8.55,57.97,7.56
				c79.71-3.68,98.99-23.98,112.83-50.37c9.68-18.5-3.86-39.44-6.12-50.3c-2.67-13.16-13.56-29.44-6.45-42.99
				c4.85-9.25,14.21-15.89,24.22-17.31c7.15-1.02,13.11,0.1,19.41,4.47L689.78,474.76z"/>
		</g>
		<g>
			<path fill-rule="evenodd" fill="#FFFFFF" d="M694.11,633.12c-8.19,3.81,3.41-38.69,29.38-74.4l49.49-70.08l53.54-13.69
				l23.56-33.69l-53.55,13.67l45.61-62.53l-71.87,20.16L649.15,585.56c-26.39,39.03-24.14,56.2,15.05,50.59
				C683.06,633.45,694.11,633.12,694.11,633.12z"/>
		</g>
		<g>
			<path fill-rule="evenodd" fill="#FFFFFF" d="M925,546.04c-20.17,10.17-36.36,19.04-53.47,21.5
				c-33.49,4.81-14.62-26.26-9.82-34.19c51.29-6.02,119.86-36.31,140.01-74.79c17.87-34.23-4.28-42.92-39.19-37.92
				c-45.66,6.53-128.14,48.37-174.45,132.48c-13.23,23.99-22.66,68.55,25.48,61.66c35.65-5.11,77.26-24.3,110.05-42.17L925,546.04z
				 M941.48,452c11.46-1.6,14.65,4.87,8.56,15.29c-11.49,19.44-34.91,32.04-69.83,35.71C898.23,477.99,919.74,456.47,941.48,452z"/>
		</g>
		<g>
			<path fill-rule="evenodd" fill="#FFFFFF" d="M1018.43,582.14c0,0,32.92-77.22,61.24-122.54
				c39.18-62.63,120.75-145.93,120.75-145.93l-77.12,10.95c0,0-64.75,68.41-99.45,117.36c-39.45,55.56-86.75,151.69-86.75,151.69
				L1018.43,582.14z"/>
		</g>
		<g>
			<path fill-rule="evenodd" fill="#FFFFFF" d="M1246.17,508.17c5.23-0.5,39.55-3.11,94.29-70.26c17.11-20.69,23.78-37.53,7.35-35.9
				c-33.31,3.33-78.32,44.12-96.38,68.24C1233.75,493.78,1227.15,510.07,1246.17,508.17z M1226.58,555.05
				c-56.33,8.07-57.69-35.93-39.46-70.85c29.12-55.58,103.62-111.12,163.49-119.71c11.34-1.58,59.44-4.76,71.07-3.4
				c10.97,23.12-22.33,14.34-19.83,24.68c3.46,14.4-1.99,33.46-10.73,50.09C1365.41,485.05,1300.03,544.53,1226.58,555.05z"/>
		</g>
		<g>
			<path fill-rule="evenodd" fill="#FFFFFF" d="M1117.8,568.78c0,0,32.9-77.2,61.23-122.48c39.17-62.66,120.74-146.01,120.74-146.01
				l-77.14,11.03c0,0-64.72,68.41-99.43,117.32c-39.48,55.55-86.74,151.7-86.74,151.7L1117.8,568.78z"/>
		</g>
	</g>
	<g>
		<path fill="#010202" d="M172.94,1070.93c-0.91,1.56-1.79,2.88-2.72,3.97c-0.92,1.1-1.9,1.99-2.88,2.64
			c-1,0.68-2.05,1.21-3.12,1.57c-2.19,0.78-5.98,1.17-11.45,1.17h-5.12c-4.54,0-7.23-0.17-8.16-0.46c-1.09-0.42-1.81-1.19-2.21-2.28
			c-0.33-1.08-0.51-2.84-0.51-5.29v-44.42c0-4.29,0.25-6.97,0.8-7.99c0.26-0.58,0.67-1.11,1.13-1.56c0.47-0.48,1.11-0.87,1.94-1.21
			c0.86-0.34,1.89-0.61,3.16-0.78c1.24-0.17,2.88-0.28,4.79-0.28v-1.94h-32.06v1.94h2.74c2.62,0,4.6,0.78,5.95,2.34
			c0.99,1.14,1.5,3.88,1.5,8.25v45.65c0,4-0.36,6.57-1.08,7.71c-1.37,1.93-3.46,2.88-6.36,2.88h-2.74v1.96h54.78l6.05-19.22
			l-1.67-0.33C174.74,1067.49,173.82,1069.4,172.94,1070.93z"/>
		<path fill="#010202" d="M202.78,1015.48c-0.88-0.95-1.86-1.68-2.92-2.18c-1.09-0.52-2.22-0.79-3.35-0.79
			c-0.85,0-1.66,0.14-2.49,0.39c-0.83,0.25-1.58,0.65-2.24,1.14c-0.62,0.47-1.14,1.09-1.53,1.88c-0.42,0.72-0.58,1.6-0.58,2.59
			c0,1.58,0.52,2.92,1.6,3.96c1.09,1.05,2.35,1.55,3.74,1.55c0.21,0,0.48-0.03,0.86-0.12c0.29-0.07,0.66-0.19,1.03-0.3
			c0.34-0.14,0.69-0.23,1.05-0.32c0.34-0.07,0.58-0.1,0.82-0.1c0.48,0,0.91,0.25,1.32,0.72c0.4,0.51,0.64,1.3,0.64,2.45
			c0,2.19-0.69,4.05-2,5.61c-1.3,1.55-3.59,3.25-6.71,5.05v2.49c2.36-0.87,4.43-1.94,6.12-3.21c1.72-1.23,3.14-2.55,4.22-4.01
			c1.12-1.47,1.92-3,2.46-4.59c0.52-1.62,0.78-3.26,0.78-4.93c0-1.45-0.26-2.78-0.78-4.04
			C204.29,1017.49,203.64,1016.42,202.78,1015.48z"/>
		<path fill="#010202" d="M284.3,1080.59c-0.92-0.83-1.8-1.98-2.63-3.47c-0.84-1.46-1.79-3.44-2.75-5.85l-24.59-58.75h-1.83
			l-24.86,58.13c-0.95,2.13-1.73,3.9-2.38,5.36c-0.68,1.45-1.34,2.64-2.17,3.53c-0.75,0.92-1.69,1.63-2.78,2.15
			c-1.1,0.53-2.53,0.89-4.29,1.16v1.96h22.28v-1.96c-1.77-0.12-3.21-0.3-4.26-0.59c-1.05-0.27-1.9-0.63-2.48-1.01
			c-0.61-0.4-0.98-0.82-1.21-1.28c-0.15-0.48-0.22-1-0.22-1.57c0-1.34,0.55-3.38,1.67-6.14l4.81-11.12h27.41l4.3,10.13
			c1.35,3.35,2.02,5.79,2.07,7.3c0,1.14-0.5,2.12-1.49,2.92c-1.01,0.79-2.92,1.25-5.74,1.36v1.96h27.93v-1.96
			c-1.47-0.06-2.78-0.24-3.84-0.55C286.19,1082.01,285.23,1081.41,284.3,1080.59z M238.31,1057.25l12.25-28.54l12.01,28.54H238.31z"
			/>
		<path fill="#010202" d="M354.94,1079.97c-1.3-0.88-2.65-2.06-3.97-3.59c-1.31-1.5-2.83-3.41-4.54-5.74l-14.53-20.22
			c5.92-1.37,10.29-3.61,13.12-6.77c2.82-3.19,4.23-6.96,4.23-11.36c0-2.05-0.36-3.95-1.05-5.69c-0.68-1.76-1.59-3.36-2.74-4.8
			c-1.18-1.42-2.52-2.64-4.11-3.65c-1.57-1-3.17-1.8-4.97-2.37c-1.77-0.57-4.01-1.01-6.78-1.29c-2.75-0.27-6.01-0.43-9.77-0.43
			h-25.8v1.94h2.74c2.64,0,4.66,0.78,6,2.34c0.97,1.14,1.47,3.88,1.47,8.25v45.65c0,4-0.34,6.57-1.12,7.71
			c-1.34,1.93-3.44,2.88-6.35,2.88h-2.74v1.96h30.35v-1.96h-2.79c-1.14,0-2.15-0.08-3.08-0.24c-0.91-0.15-1.68-0.59-2.34-1.29
			c-0.61-0.7-1.1-1.77-1.48-3.17c-0.3-1.44-0.49-3.38-0.49-5.9v-20.53c0.57,0.04,1.12,0.08,1.64,0.1c0.52,0.04,1.02,0.06,1.49,0.06
			c0.6,0,1.19-0.01,1.9-0.06c0.7-0.02,1.5-0.06,2.36-0.1l23.95,33.08h18.82v-1.96c-2-0.22-3.76-0.51-5.24-0.93
			C357.64,1081.51,356.25,1080.84,354.94,1079.97z M317.15,1048.54c-0.29,0-0.67-0.01-1.17-0.06c-0.5-0.02-1.1-0.03-1.78-0.03v-29.4
			c3.34-0.68,6.07-1.01,8.17-1.01c2.25,0,4.3,0.35,6.17,1.08c1.86,0.73,3.45,1.75,4.82,3.07c1.33,1.32,2.38,2.92,3.08,4.76
			c0.75,1.84,1.1,3.86,1.1,6.01c0,2.26-0.42,4.29-1.27,6.2c-0.87,1.89-2.16,3.55-3.86,4.93c-1.73,1.41-3.84,2.51-6.38,3.26
			C323.49,1048.14,320.51,1048.54,317.15,1048.54z"/>
		<path fill="#010202" d="M360.37,1030.71h1.94c0.11-2.47,0.55-4.53,1.27-6.08c0.71-1.61,1.66-2.86,2.84-3.75
			c1.21-0.9,2.63-1.52,4.21-1.86c1.66-0.34,3.55-0.5,5.69-0.5h8.45v54.07c0,2.32-0.17,4.16-0.5,5.53c-0.32,1.34-0.79,2.36-1.46,3.07
			c-0.62,0.69-1.39,1.15-2.31,1.34c-0.93,0.2-2.04,0.32-3.24,0.32h-2.5v1.96h29.94v-1.96h-2.4c-1.28,0-2.33-0.09-3.29-0.27
			c-0.94-0.17-1.72-0.61-2.36-1.29c-0.58-0.66-1.06-1.69-1.44-3.06c-0.32-1.39-0.49-3.26-0.49-5.64v-54.07h9.98
			c3.97,0,6.98,0.91,9.07,2.77c2.07,1.83,3.33,4.99,3.93,9.43h1.13v-16.64h-58.46V1030.71z"/>
		<path fill="#010202" d="M476.34,1076.77c-0.88,0.84-1.67,1.54-2.49,2.08c-0.77,0.52-1.65,0.97-2.67,1.26
			c-1.03,0.32-2.22,0.54-3.66,0.64c-1.39,0.09-3.05,0.16-5.1,0.16h-11.98c-1.52,0-2.68-0.07-3.42-0.24
			c-0.76-0.14-1.34-0.51-1.71-1.05c-0.4-0.53-0.55-1.33-0.6-2.37c-0.07-1.01-0.09-2.44-0.09-4.19v-23.35h15.49
			c2.26,0,4.05,0.18,5.44,0.5c1.35,0.36,2.4,0.95,3.13,1.73c0.75,0.79,1.26,1.88,1.66,3.23c0.31,1.35,0.58,3.04,0.89,5.08h1.95
			v-24.58h-1.95c-0.12,1.74-0.33,3.28-0.65,4.59c-0.28,1.29-0.85,2.34-1.65,3.18c-0.84,0.8-1.91,1.45-3.33,1.87
			c-1.4,0.41-3.22,0.59-5.48,0.59h-15.49v-27.91h19.36c2.39,0,4.36,0.13,5.89,0.36c1.5,0.21,2.77,0.75,3.78,1.58
			c0.97,0.85,1.74,2.01,2.35,3.54c0.6,1.53,1.13,3.57,1.65,6.1h1.28v-15.48h-54.45v1.94h2.49c2.93,0,5.01,0.69,6.29,2.11
			c0.88,1.03,1.34,3.79,1.34,8.32v45.9c0,3.41-0.25,5.7-0.66,6.85c-0.2,0.63-0.57,1.15-1.12,1.63c-0.49,0.46-1.04,0.83-1.71,1.13
			c-0.67,0.28-1.32,0.5-2.07,0.65c-0.7,0.16-1.43,0.24-2.06,0.24h-2.49v1.96h54.45l6.12-17.75h-2.11
			C480.6,1071.5,478.44,1074.77,476.34,1076.77z"/>
		<path fill="#010202" d="M568.83,1017.72c-5.58-2.44-13.6-3.65-24.11-3.65h-28.78v1.94h2.69c2.68,0,4.71,0.78,6.04,2.34
			c0.98,1.14,1.47,3.88,1.47,8.25v45.65c0,2.39-0.21,4.28-0.52,5.69c-0.32,1.41-0.79,2.46-1.43,3.17c-0.64,0.75-1.38,1.22-2.34,1.41
			c-0.9,0.2-1.99,0.32-3.23,0.32h-2.69v1.96h31.59c6.53,0,12.25-0.89,17.22-2.67c4.92-1.75,9.04-4.21,12.38-7.36
			c3.34-3.19,5.88-6.96,7.54-11.31c1.7-4.35,2.53-9.17,2.53-14.38c0-7.26-1.65-13.72-5.02-19.39
			C578.86,1024.16,574.41,1020.16,568.83,1017.72z M573.14,1062.7c-1.41,3.87-3.41,7.19-5.85,9.91c-2.54,2.73-5.51,4.84-8.96,6.3
			c-3.43,1.48-7.09,2.21-11.11,2.21c-3.06,0-6.74-0.47-11.05-1.47v-60.07c4.07-1.03,7.57-1.54,10.66-1.54
			c4.12,0,7.95,0.72,11.42,2.18c3.47,1.45,6.52,3.53,9.05,6.26c2.5,2.72,4.5,6.04,5.88,9.95c1.38,3.91,2.14,8.31,2.14,13.17
			C575.32,1054.45,574.56,1058.8,573.14,1062.7z"/>
		<path fill="#010202" d="M645.36,1076.77c-0.92,0.84-1.76,1.54-2.5,2.08c-0.82,0.52-1.73,0.97-2.75,1.26
			c-0.99,0.32-2.17,0.54-3.59,0.64c-1.38,0.09-3.13,0.16-5.11,0.16h-12.03c-1.47,0-2.61-0.07-3.4-0.24
			c-0.77-0.14-1.37-0.51-1.7-1.05c-0.33-0.52-0.59-1.33-0.64-2.37c-0.05-1.01-0.06-2.44-0.06-4.19v-23.35h15.45
			c2.34,0,4.15,0.18,5.48,0.5c1.33,0.36,2.38,0.95,3.18,1.73c0.72,0.79,1.27,1.88,1.61,3.23c0.32,1.35,0.64,3.04,0.88,5.08h1.93
			v-24.58h-1.93c-0.09,1.74-0.29,3.28-0.58,4.59c-0.37,1.29-0.93,2.34-1.7,3.18c-0.79,0.8-1.91,1.45-3.29,1.87
			c-1.4,0.41-3.24,0.59-5.58,0.59h-15.45v-27.91h19.33c2.39,0,4.36,0.13,5.91,0.36c1.54,0.21,2.76,0.75,3.76,1.58
			c0.98,0.85,1.83,2.01,2.36,3.54c0.62,1.53,1.18,3.57,1.71,6.1h1.21v-15.48h-54.45v1.94h2.5c2.97,0,5.11,0.69,6.31,2.11
			c0.88,1.02,1.31,3.79,1.31,8.32v45.9c0,3.41-0.17,5.7-0.58,6.85c-0.24,0.63-0.59,1.15-1.1,1.64c-0.55,0.45-1.13,0.83-1.78,1.13
			c-0.63,0.28-1.36,0.5-2.03,0.65c-0.79,0.16-1.43,0.23-2.14,0.23h-2.5v1.96h54.45l6.2-17.75h-2.14
			C649.62,1071.5,647.37,1074.78,645.36,1076.77z"/>
		<path fill="#010202" d="M714.93,1070.93c-0.86,1.56-1.75,2.88-2.69,3.97c-0.93,1.1-1.88,1.99-2.88,2.64
			c-0.98,0.68-2.02,1.21-3.14,1.57c-2.14,0.78-5.95,1.17-11.43,1.17h-5.09c-4.54,0-7.23-0.17-8.17-0.46
			c-1.11-0.42-1.89-1.19-2.23-2.28c-0.34-1.08-0.54-2.84-0.54-5.29v-44.42c0-4.29,0.3-6.97,0.82-7.99c0.29-0.59,0.66-1.11,1.13-1.56
			c0.45-0.48,1.13-0.87,1.96-1.21c0.83-0.34,1.85-0.61,3.18-0.78c1.24-0.17,2.86-0.28,4.78-0.28v-1.94h-32.1v1.94h2.78
			c2.6,0,4.62,0.78,5.96,2.34c0.97,1.14,1.48,3.88,1.48,8.25v45.65c0,4-0.34,6.57-1.12,7.71c-1.33,1.93-3.42,2.88-6.32,2.88h-2.78
			v1.96h54.83l6.02-19.22l-1.66-0.33C716.78,1067.49,715.82,1069.4,714.93,1070.93z"/>
		<path fill="#010202" d="M780.14,1070.93c-0.86,1.56-1.76,2.88-2.67,3.97c-0.95,1.1-1.9,1.99-2.9,2.64
			c-0.97,0.68-2.02,1.21-3.13,1.57c-2.13,0.78-5.98,1.17-11.42,1.17h-5.16c-4.48,0-7.23-0.17-8.19-0.46
			c-1.03-0.42-1.78-1.19-2.14-2.28c-0.33-1.08-0.55-2.84-0.55-5.29v-44.42c0-4.29,0.28-6.97,0.77-7.99
			c0.36-0.59,0.74-1.11,1.18-1.56c0.46-0.48,1.15-0.87,1.95-1.21c0.82-0.34,1.86-0.61,3.12-0.78c1.33-0.17,2.9-0.28,4.82-0.28v-1.94
			h-32.08v1.94h2.7c2.68,0,4.7,0.78,6.03,2.34c0.98,1.14,1.48,3.88,1.48,8.25v45.65c0,4-0.34,6.57-1.12,7.71
			c-1.31,1.93-3.47,2.88-6.39,2.88h-2.7v1.96h54.77l6.09-19.22l-1.77-0.33C781.91,1067.49,781.02,1069.4,780.14,1070.93z"/>
		<path fill="#010202" d="M855.98,1080.59c-0.91-0.83-1.8-1.98-2.68-3.47c-0.84-1.46-1.77-3.44-2.75-5.85l-24.58-58.76h-1.76
			l-24.96,58.13c-0.93,2.13-1.69,3.9-2.36,5.36c-0.6,1.45-1.35,2.64-2.1,3.53c-0.83,0.92-1.75,1.63-2.8,2.15
			c-1.08,0.53-2.51,0.89-4.34,1.16v1.96h22.28v-1.96c-1.74-0.12-3.16-0.3-4.24-0.59c-1.07-0.27-1.88-0.63-2.5-1.01
			c-0.59-0.4-0.99-0.81-1.12-1.28c-0.21-0.48-0.31-1-0.31-1.57c0-1.34,0.57-3.38,1.76-6.14l4.81-11.12h27.38l4.28,10.13
			c1.31,3.35,2.07,5.79,2.12,7.3c0,1.14-0.51,2.12-1.53,2.92c-1.02,0.79-2.92,1.25-5.72,1.36v1.96h27.94v-1.96
			c-1.52-0.06-2.85-0.23-3.86-0.55C857.87,1082.01,856.88,1081.41,855.98,1080.59z M809.93,1057.24l12.33-28.54l11.97,28.54H809.93z
			"/>
		<path fill="#010202" d="M936.59,1022.68c-1.21-1.54-2.57-2.86-4.16-3.99c-1.56-1.1-3.26-1.99-5.07-2.6
			c-3.75-1.33-8.71-2.02-14.92-2.02h-25.92v1.94h2.65c2.62,0,4.62,0.78,6.04,2.34c0.95,1.07,1.41,3.85,1.41,8.25v45.65
			c0,4-0.38,6.57-1.07,7.71c-1.31,1.93-3.43,2.88-6.37,2.88h-2.65v1.96h30.28v-1.96h-2.78c-2.6,0-4.6-0.75-5.93-2.26
			c-0.99-1.03-1.49-3.82-1.49-8.33v-20.53c4.53,0.93,8.51,1.4,11.88,1.4c3.5,0,6.59-0.49,9.28-1.45c2.67-0.95,5.02-2.28,6.87-3.99
			c1.83-1.74,3.27-3.78,4.27-6.16c0.98-2.39,1.47-5,1.47-7.85c0-2.15-0.35-4.11-1.03-5.96
			C938.62,1025.89,937.72,1024.19,936.59,1022.68z M927.43,1040.76c-0.76,1.87-1.71,3.45-2.9,4.79c-1.26,1.3-2.66,2.34-4.26,3.11
			c-1.59,0.74-3.35,1.11-5.14,1.11c-1.04,0-2.24-0.07-3.62-0.28c-1.41-0.18-3.07-0.45-4.92-0.78v-29.45
			c2.81-0.62,5.05-0.92,6.87-0.92c2.08,0,4.05,0.36,5.85,1.07c1.86,0.74,3.4,1.83,4.79,3.21c1.36,1.39,2.4,3.1,3.2,5.13
			c0.74,2.02,1.14,4.33,1.14,6.91C928.43,1036.86,928.05,1038.89,927.43,1040.76z"/>
		<path fill="#010202" d="M1006.87,1023.01c-3.17-3.26-6.72-5.83-10.85-7.69c-4.05-1.86-8.36-2.81-12.9-2.81
			c-5.05,0-9.8,0.99-14.11,2.89c-4.28,1.91-7.98,4.53-11.14,7.81c-3.13,3.31-5.6,7.18-7.37,11.62c-1.83,4.48-2.73,9.26-2.73,14.35
			c0,5.47,0.9,10.51,2.73,15.08c1.77,4.57,4.22,8.48,7.32,11.78c3.04,3.31,6.74,5.87,10.92,7.67c4.16,1.81,8.71,2.73,13.54,2.73
			c4.76,0,9.28-0.95,13.49-2.85c4.22-1.9,7.88-4.5,11.05-7.85c3.13-3.36,5.6-7.31,7.45-11.87c1.88-4.57,2.81-9.52,2.81-14.87
			c0-5.19-0.92-9.99-2.81-14.44C1012.42,1030.15,1009.95,1026.29,1006.87,1023.01z M1003.4,1064.99c-1.18,4.07-2.79,7.42-4.88,10.03
			c-2.07,2.64-4.5,4.58-7.29,5.81c-2.74,1.25-5.78,1.87-9.04,1.87c-3.63,0-6.86-0.83-9.64-2.47c-2.79-1.63-5.12-3.95-7.02-6.91
			c-1.91-3-3.35-6.55-4.31-10.67c-0.95-4.13-1.43-8.67-1.43-13.65c0-5.04,0.48-9.56,1.48-13.57c0.97-4.04,2.41-7.44,4.31-10.29
			c1.92-2.82,4.27-5.01,7.03-6.53c2.74-1.54,5.96-2.29,9.51-2.29c3.78,0,7.12,0.75,9.98,2.29c2.89,1.52,5.31,3.77,7.26,6.7
			c1.93,2.91,3.38,6.49,4.35,10.71c0.96,4.25,1.43,9.01,1.43,14.38C1005.13,1056.06,1004.6,1060.93,1003.4,1064.99z"/>
		<path fill="#010202" d="M1079.7,1070.93c-0.88,1.56-1.81,2.88-2.75,3.97c-0.92,1.1-1.89,1.99-2.88,2.64
			c-0.97,0.68-1.99,1.21-3.08,1.57c-2.2,0.78-6.04,1.17-11.44,1.17h-5.17c-4.46,0-7.24-0.17-8.17-0.46
			c-1.09-0.42-1.8-1.19-2.15-2.28c-0.38-1.08-0.56-2.84-0.56-5.29v-44.42c0-4.29,0.24-6.97,0.77-7.99c0.34-0.59,0.73-1.11,1.19-1.56
			c0.47-0.48,1.12-0.87,1.97-1.21c0.79-0.34,1.86-0.61,3.1-0.78c1.32-0.17,2.86-0.28,4.79-0.28v-1.94h-32.02v1.94h2.69
			c2.69,0,4.65,0.78,6.02,2.34c1,1.14,1.47,3.88,1.47,8.25v45.65c0,4-0.38,6.57-1.09,7.71c-1.33,1.93-3.49,2.88-6.4,2.88h-2.69v1.96
			h54.75l6.1-19.22l-1.75-0.33C1081.46,1067.49,1080.55,1069.4,1079.7,1070.93z"/>
		<path fill="#010202" d="M1140.45,1076.77c-0.87,0.84-1.74,1.54-2.49,2.08c-0.79,0.52-1.7,0.97-2.68,1.26
			c-1,0.32-2.25,0.54-3.63,0.64c-1.41,0.09-3.11,0.16-5.12,0.16h-11.99c-1.48,0-2.67-0.07-3.41-0.24c-0.83-0.14-1.4-0.51-1.76-1.05
			c-0.33-0.52-0.58-1.33-0.6-2.37c-0.04-1.01-0.04-2.44-0.04-4.19v-23.35h15.46c2.29,0,4.07,0.18,5.41,0.5
			c1.37,0.36,2.38,0.95,3.18,1.73c0.73,0.79,1.27,1.88,1.61,3.23c0.38,1.35,0.63,3.04,0.89,5.08h1.96v-24.58h-1.96
			c-0.08,1.74-0.31,3.28-0.59,4.59c-0.34,1.29-0.87,2.34-1.71,3.18c-0.79,0.8-1.91,1.45-3.29,1.87c-1.41,0.41-3.22,0.59-5.51,0.59
			h-15.46v-27.91h19.33c2.39,0,4.34,0.13,5.86,0.36c1.54,0.21,2.8,0.75,3.78,1.58c0.97,0.85,1.8,2.01,2.39,3.54
			c0.57,1.53,1.13,3.57,1.64,6.1h1.26v-15.48h-54.48v1.94h2.48c2.97,0,5.11,0.69,6.3,2.11c0.9,1.02,1.34,3.79,1.34,8.32v45.9
			c0,3.41-0.2,5.7-0.58,6.85c-0.26,0.63-0.59,1.15-1.12,1.64c-0.52,0.45-1.13,0.83-1.71,1.13c-0.69,0.28-1.38,0.5-2.09,0.65
			c-0.76,0.16-1.43,0.23-2.14,0.23h-2.48v1.96H1143l6.16-17.75h-2.11C1144.71,1071.5,1142.51,1074.78,1140.45,1076.77z"/>
		<path fill="#010202" d="M1202.53,1016.01h2.49c1.18,0,2.22,0.11,3.15,0.28c0.95,0.17,1.77,0.61,2.39,1.27
			c0.66,0.67,1.15,1.71,1.47,3.13c0.37,1.4,0.5,3.28,0.5,5.67v40.77l-43.22-53.06h-19.12v1.94c1.98,0,3.51,0.17,4.55,0.47
			c1.12,0.36,2.02,0.69,2.74,1.01c0.74,0.31,1.41,0.67,2,1.16c0.64,0.47,1.32,1.08,2,1.79c0.74,0.74,1.59,1.71,2.65,2.97v49.17
			c0,2.32-0.19,4.16-0.48,5.53c-0.33,1.34-0.8,2.36-1.42,3.07c-0.7,0.69-1.43,1.15-2.38,1.34c-0.95,0.2-2.03,0.32-3.29,0.32h-2.48
			v1.96h24.59v-1.96h-2.47c-1.24,0-2.31-0.08-3.23-0.23c-0.94-0.15-1.7-0.58-2.34-1.26c-0.61-0.67-1.09-1.69-1.45-3.05
			c-0.31-1.38-0.5-3.29-0.5-5.72v-43.57l46.63,56.94h1.86v-59.59c0-2.34,0.16-4.16,0.49-5.52c0.29-1.34,0.74-2.38,1.38-3.12
			c0.64-0.71,1.41-1.19,2.33-1.38c0.93-0.22,2.04-0.32,3.24-0.32h2.59v-1.94h-24.65V1016.01z"/>
		<path fill="#010202" d="M1290.45,1030.71v-16.64h-58.54v16.64h1.95c0.19-2.47,0.59-4.53,1.27-6.08c0.73-1.61,1.68-2.86,2.85-3.75
			c1.21-0.9,2.61-1.52,4.28-1.86c1.59-0.34,3.45-0.5,5.62-0.5h8.46v54.07c0,2.32-0.13,4.16-0.5,5.53c-0.34,1.34-0.83,2.36-1.44,3.07
			c-0.6,0.69-1.41,1.15-2.35,1.34c-0.94,0.2-2.01,0.32-3.24,0.32h-2.52v1.96h29.96v-1.96h-2.4c-1.22,0-2.31-0.09-3.24-0.27
			c-0.93-0.17-1.71-0.61-2.33-1.29c-0.64-0.66-1.11-1.69-1.42-3.06c-0.36-1.39-0.52-3.26-0.52-5.64v-54.07h9.92
			c4.02,0,7.05,0.91,9.06,2.77c2.08,1.83,3.36,4.99,3.93,9.43H1290.45z"/>
		<path fill="#010202" d="M1357.37,1082.3c-1.05-0.29-2.05-0.88-2.96-1.71c-0.89-0.83-1.77-1.98-2.64-3.47
			c-0.86-1.46-1.79-3.44-2.78-5.85l-24.57-58.76h-1.79l-24.88,58.13c-0.94,2.13-1.75,3.9-2.37,5.36c-0.64,1.45-1.38,2.64-2.14,3.53
			c-0.79,0.92-1.72,1.63-2.79,2.15c-1.11,0.53-2.54,0.89-4.31,1.16v1.96h22.25v-1.96c-1.77-0.12-3.18-0.3-4.24-0.59
			c-1.06-0.27-1.89-0.63-2.51-1.01c-0.55-0.4-0.96-0.81-1.13-1.28c-0.21-0.48-0.28-1-0.28-1.57c0-1.34,0.55-3.38,1.72-6.14
			l4.83-11.12h27.37l4.26,10.13c1.37,3.35,2.07,5.79,2.14,7.3c0,1.14-0.52,2.12-1.54,2.92c-1.02,0.79-2.93,1.25-5.69,1.36v1.96
			h27.91v-1.96C1359.72,1082.79,1358.46,1082.61,1357.37,1082.3z M1308.4,1057.24l12.31-28.54l11.95,28.54H1308.4z"/>
		<path fill="#010202" d="M1139.38,637.18c1.6-3.52,3.66-6.6,6.36-9.19c2.67-2.57,5.81-4.65,9.35-6.12
			c3.58-1.52,7.34-2.23,11.36-2.23c4.03,0,7.8,0.71,11.31,2.23c3.54,1.47,6.67,3.54,9.28,6.12c2.68,2.58,4.74,5.66,6.31,9.19
			c1.59,3.55,2.33,7.35,2.33,11.46c0,4.24-0.75,8.12-2.33,11.69c-1.56,3.55-3.63,6.63-6.31,9.26c-2.61,2.62-5.74,4.67-9.28,6.11
			c-3.51,1.48-7.28,2.21-11.31,2.21c-4.02,0-7.78-0.73-11.36-2.21c-3.54-1.45-6.68-3.49-9.35-6.11c-2.7-2.63-4.76-5.71-6.36-9.26
			c-1.58-3.57-2.33-7.45-2.33-11.69C1137.05,644.53,1137.79,640.73,1139.38,637.18z M1144.17,658.64c1.24,3.02,2.92,5.66,5.09,7.89
			c2.14,2.21,4.71,4,7.65,5.27c2.95,1.31,6.12,1.9,9.53,1.9c3.4,0,6.52-0.59,9.43-1.9c2.9-1.27,5.44-3.07,7.64-5.27
			c2.14-2.22,3.86-4.87,5.04-7.89c1.22-3.09,1.83-6.38,1.83-10c0-3.47-0.61-6.74-1.83-9.72c-1.19-3.04-2.91-5.64-5.04-7.83
			c-2.19-2.21-4.74-3.99-7.64-5.22c-2.91-1.29-6.03-1.93-9.43-1.93c-3.41,0-6.58,0.64-9.53,1.93c-2.94,1.23-5.51,3-7.65,5.22
			c-2.17,2.19-3.86,4.79-5.09,7.83c-1.21,2.99-1.84,6.25-1.84,9.72C1142.34,652.26,1142.97,655.55,1144.17,658.64z M1168.23,631.7
			c4.11,0,7.08,0.83,9.02,2.46c1.93,1.59,2.93,4.03,2.93,7.35c0,3.02-0.85,5.28-2.52,6.71c-1.78,1.46-3.88,2.27-6.47,2.51l9.8,15.1
			h-5.7l-9.3-14.68h-5.61v14.68h-5.33V631.7H1168.23z M1165.92,646.85c1.18,0,2.29,0,3.41-0.12c1.04-0.08,2-0.27,2.81-0.66
			c0.83-0.36,1.5-0.9,2-1.66c0.5-0.76,0.73-1.84,0.73-3.18c0-1.16-0.21-2.01-0.64-2.71c-0.43-0.71-1.02-1.18-1.74-1.55
			c-0.64-0.41-1.5-0.65-2.43-0.76c-0.9-0.13-1.81-0.17-2.66-0.17h-7.02v10.83H1165.92z"/>
	</g>
	<g>
		<g>
			<path fill="#FFFFFF" d="M673.1,918.71c-0.76,0-76.44-0.14-110.31-0.14c-9.94,0-15.41,0.01-16.25,0.03c-0.01,0-0.02,0-0.03,0
				c-0.49,0-0.95-0.34-1.09-0.81c-0.58-1.93,12.61-27.42,51.8-53.17c97.46-64.05,285.94-95.18,426.9-110.02
				c8.73-0.92,24.44-1.94,42.63-3.13c12.46-0.81,25.35-1.65,37.41-2.55c0.03,0,0.06,0,0.08,0c0.56,0,1.03,0.42,1.1,0.98
				c0.07,0.59-0.33,1.12-0.92,1.22c-0.13,0.08-0.28,0.13-0.44,0.15c-35.4,4.22-65.33,7.94-91.48,11.38
				c-191.73,25.19-247.22,68.41-291.81,103.14l-0.82,0.64c-30.55,23.83-42.86,44.03-45.1,51.39c-0.12,0.39-0.44,0.69-0.84,0.76
				l-0.62,0.12C673.24,918.7,673.17,918.71,673.1,918.71C673.1,918.71,673.1,918.71,673.1,918.71z"/>
			<path fill="#FFFFFF" d="M1104.25,750.02L1104.25,750.02 M1104.25,750.02c-0.14,0.02-1.95,0.23-2.79,0.32c-0.05,0-0.08,0-0.1,0
				c-0.02,0-0.02,0-0.01,0c-0.24,0.03-0.33,0.04-0.32,0.04c0.02,0,0.18-0.02,0.43-0.04c0.5-0.03,2.41-0.18,2.41-0.18
				c-32.38,3.86-63.51,7.7-91.49,11.38c-193.21,25.38-248.42,69.16-293.17,104c-39,30.42-45.48,51.94-45.48,51.94l-0.62,0.12
				c0,0-76.05-0.14-110.31-0.14c-9.17,0-15.35,0.01-16.28,0.03c-0.74,0,11.27-25.64,51.32-51.96
				c56.32-37.01,176.18-83.51,426.41-109.85C1038.95,754.14,1074.66,752.23,1104.25,750.02 M1104.25,747.81c-0.02,0-0.04,0-0.06,0
				c-0.04,0-0.08,0-0.13,0.01c-12.05,0.9-24.93,1.74-37.38,2.55c-18.2,1.18-33.92,2.21-42.67,3.13
				c-113.48,11.95-209.81,29.1-286.3,50.99c-59.96,17.16-107.43,37.08-141.09,59.2c-20.77,13.65-33.77,26.98-41.01,35.76
				c-4.35,5.27-7.1,9.45-8.64,12.03c-3.05,5.11-2.79,5.99-2.6,6.63c0.28,0.94,1.17,1.6,2.15,1.6c0.02,0,0.04,0,0.06,0
				c0.83-0.02,6.29-0.03,16.22-0.03c33.87,0,109.55,0.13,110.31,0.14h0c0.14,0,0.29-0.01,0.43-0.04l0.62-0.12
				c0.8-0.16,1.45-0.75,1.69-1.53c0.01-0.04,1.69-5.34,8.01-14.21c5.84-8.2,16.95-21.21,36.72-36.63l0.82-0.64
				c44.48-34.65,99.84-77.77,291.28-102.92c26.14-3.43,56.06-7.16,91.47-11.37c0.25-0.03,0.48-0.1,0.69-0.2
				c0.95-0.25,1.65-1.11,1.65-2.14c0-1.21-0.96-2.19-2.17-2.21C1104.28,747.81,1104.26,747.81,1104.25,747.81L1104.25,747.81z"/>
		</g>
		<path fill="#FFFFFF" d="M1104.97,750.31c0-0.09-0.03,0.08-0.03,0c-30.83,3.54-274.92,18.7-386.35,114.95
			c-37.58,32.46-45.4,54.61-45.4,54.61l129.07-0.04c0,0,0.23-1.75,1.23-4.61c2.67-7.67,10.76-28.88,34.43-49.96
			c54.17-48.22,239.6-117,266.75-114.95H1104.97z"/>
		<path fill="#009640" d="M596.95,866.98c-35.96,23.21-50.87,52.77-51.22,52.86c3.73-0.12,129.04,0.01,129.04,0.01
			s6.23-21.97,45.16-52.87c44.68-35.39,90.33-70.68,259.58-100.23c27.77-4.84,94.79-13,127.13-16.92c0,0-0.25-0.12,0-0.12
			c-1.25-1-7.57-0.31-7.57-0.34C1069.53,751.6,748.58,769.11,596.95,866.98z"/>
	</g>
	<path fill="#E30613" d="M1008.6,776.37c-96.09,35.91-142.57,61.15-171.77,88.27c-23.22,21.57-31.13,42.15-32.72,50.27
		c-0.55,2.82-0.28,2.85-0.28,2.85s5.84-0.22,15-0.23c32.51-0.05,106.47,0.04,109.84,0.04c0.76,0,4.64,0.21,8.54-2.78l163.39-158.7
		c3.06-2.57,6.29-6.31,6.32-6.39C1084.88,751.08,1046.55,762.18,1008.6,776.37z"/>
</g>
<g>
</g>
<g>
</g>
<g>
</g>
<g>
</g>
<g>
</g>
<g>
</g>
</svg>
